<?xml version="1.0" encoding="iso-8859-1"?>
<!-- Generator: Adobe Illustrator 19.0.0, SVG Export Plug-In . SVG Version: 6.00 Build 0)  -->
<svg version="1.1" id="Layer_1" xmlns="http://www.w3.org/2000/svg" xmlns:xlink="http://www.w3.org/1999/xlink" x="0px" y="0px"
	 viewBox="0 0 511.999 511.999" style="enable-background:new 0 0 511.999 511.999;" xml:space="preserve">
<g>
	<g>
		<g>
			<circle cx="333.646" cy="87.408" r="6.489"/>
			<path d="M503.209,94.039h-126.22c-3.3-12.751-10.435-25.087-20.689-35.303c-14.747-14.692-34.248-23.119-53.504-23.119
				c-40.94,0-74.248,33.307-74.248,74.246c0,11.464-0.102,18.772-0.839,23.643c-13.202-8.982-29.038-16.817-47.367-23.404
				c-60.52-21.746-133.46-24.993-171.55-24.993c-2.546,0-4.966,1.103-6.637,3.025c-1.669,1.922-2.424,4.473-2.069,6.994
				c7.201,51.027,32.621,97.921,71.581,132.042c19.198,16.815,41.058,29.929,64.49,38.963
				c-11.846,30.554-20.324,63.059-24.613,94.586c-0.016,0.118-0.029,0.236-0.041,0.354c-4.654,34.459-4.112,66.854,1.571,93.696
				c0.118,0.558,0.291,1.102,0.513,1.627c5.349,12.547,18.915,19.641,38.201,19.974c0.458,0.008,0.919,0.012,1.382,0.012
				c12.048,0,25.485-2.674,37.099-7.405c9.599-3.91,22.123-10.884,27.274-21.895c4.079-8.722,2.544-17.899-4.324-25.839
				c-0.112-0.13-0.229-0.257-0.348-0.38c-16.815-17.284-26.634-35.198-28.174-51.097c95.51-16.805,168.308-100.369,168.308-200.623
				c0-2.212-0.041-4.491-0.124-6.957v-0.042c0-3.206,4.794-9.38,9.023-14.826c7.352-9.468,16.408-21.169,17.098-35.697h124.205
				c4.855,0,8.791-3.936,8.791-8.791C512,97.975,508.064,94.039,503.209,94.039z M19.191,102.771
				c38.767,0.597,102.248,4.849,155.206,23.878c55.859,20.071,84.18,50.896,84.18,91.618c0,1.015-0.047,2.018-0.114,3.017
				c-3.636-15.405-11.04-29.471-22.169-41.999c-14.223-16.013-34.655-29.597-60.729-40.374
				c-49.83-20.597-110.548-27.384-154.916-29.335C20.128,107.318,19.635,105.052,19.191,102.771z M83.251,213.945
				c-26.723-23.405-46.505-53.35-57.569-86.521c71.44,3.698,117.074,16.952,143.169,27.738
				c49.541,20.477,74.659,50.467,74.659,89.134c0,2.69-0.252,5.39-0.723,8.047c-7.81,6.646-17.917,10.669-28.95,10.669
				c-21.339,0-42.34-3.44-62.26-10.023c-0.164-0.08-0.325-0.164-0.496-0.234c-0.566-0.234-1.144-0.404-1.724-0.515
				C125.233,243.946,102.748,231.02,83.251,213.945z M335.424,169.143c0,14.822-1.751,29.242-5.04,43.071
				c-1.071-1.288-2.152-2.564-3.231-3.826c-9.65-11.295-15.382-18.777-11.813-29.782c3.727-11.494,11.206-16.196,20.259-19.933
				c-0.164,0.99-0.271,1.993-0.294,3.011c-0.013,0.256-0.015,0.513-0.006,0.771C335.383,164.848,335.424,167.036,335.424,169.143z
				 M352.297,130.923c-3.242,3.881-9.27,6.133-16.25,8.734c-12.748,4.751-30.209,11.256-37.432,33.526
				c-6.787,20.926,5.387,35.176,15.169,46.627c4.029,4.716,7.849,9.214,10.153,13.724C297.68,304.526,229.306,355.271,149.3,355.271
				c-1.466,0-2.929-0.018-4.387-0.052c-4.867-0.149-8.883,3.728-8.996,8.581c-0.115,4.854,3.727,8.882,8.581,8.996
				c1.596,0.038,3.198,0.056,4.802,0.056c6.044,0,12.022-0.28,17.932-0.798c1.611,15.35,9.241,36.534,32.839,60.866
				c2.778,3.297,2.259,5.194,1.547,6.714c-4.206,8.992-27.237,19.537-49.525,19.157c-5.408-0.094-18.141-1.133-22.018-8.625
				c-5.098-24.798-5.481-54.879-1.101-87.075c0.015-0.115,0.029-0.231,0.04-0.346c4.153-30.315,12.354-61.581,23.807-90.954
				c19.655,5.788,40.188,8.802,61.017,8.802c34.366,0,62.324-27.96,62.324-62.325c0-26.057-9.483-48.939-28.184-68.008
				c-1.688-1.721-3.47-3.404-5.309-5.064c3.457-8.256,3.464-19.077,3.464-35.333c0-31.244,25.42-56.664,56.665-56.664
				c14.639,0,29.617,6.558,41.094,17.993c11.185,11.143,17.599,25.238,17.599,38.672
				C361.488,117.159,357.293,124.144,352.297,130.923z"/>
		</g>
	</g>
</g>
<g>
</g>
<g>
</g>
<g>
</g>
<g>
</g>
<g>
</g>
<g>
</g>
<g>
</g>
<g>
</g>
<g>
</g>
<g>
</g>
<g>
</g>
<g>
</g>
<g>
</g>
<g>
</g>
<g>
</g>
</svg>
