<?xml version="1.0" encoding="iso-8859-1"?>
<!-- Generator: Adobe Illustrator 19.0.0, SVG Export Plug-In . SVG Version: 6.00 Build 0)  -->
<svg version="1.1" id="Layer_1" xmlns="http://www.w3.org/2000/svg" xmlns:xlink="http://www.w3.org/1999/xlink" x="0px" y="0px"
	 viewBox="0 0 511.999 511.999" style="enable-background:new 0 0 511.999 511.999;" xml:space="preserve">
<g>
	<path style="fill:#95D600;" d="M127.987,321.298c-11.275,46.13-14.435,93.275-6.313,131.651
		c14.06,32.986,110.852,4.056,84.897-25.955c-9.733-10.004-42.717-45.963-26.496-82.193L127.987,321.298z"/>
	<path style="fill:#95D600;" d="M344.091,162.144c0-14.033,26.19-30.126,26.19-52.281c0-32.459-31.332-65.455-67.483-65.455
		c-36.15,0-65.456,29.305-65.456,65.455c0,26.146-0.369,33.475-9.865,40.449c-0.659,0.441-1.312,0.901-1.967,1.359
		c-0.108,0.07-0.209,0.139-0.316,0.21l0.004,0.008c-52.198,36.718-93.57,126.435-104.94,210.015
		c9.475,1.415,19.172,2.156,29.043,2.156c107.65,0,194.917-87.268,194.917-194.918c0-2.343-0.049-4.675-0.131-6.999L344.091,162.144
		z"/>
</g>
<path style="fill:#229CD2;" d="M344.091,162.144c0-7.719,7.924-16.066,15.055-25.699c-12.253,14.888-42.539,9.758-52.169,39.448
	c-8.234,25.39,19.48,38.113,26.437,57.357c6.991-20.079,10.802-41.646,10.802-64.107c0-2.343-0.049-4.675-0.131-6.999H344.091z"/>
<g>
	<path style="opacity:0.2;fill:#218649;enable-background:new    ;" d="M329.747,242.964H155.68
		c-11.599,24.436-21.044,51.209-27.675,78.342l-0.016-0.007c-0.149,0.612-0.281,1.226-0.428,1.838
		c-0.373,1.555-0.735,3.113-1.089,4.67c-0.332,1.462-0.655,2.92-0.971,4.38c-0.301,1.398-0.595,2.798-0.883,4.198
		c-0.301,1.469-0.593,2.935-0.877,4.403c-0.293,1.52-0.579,3.039-0.855,4.559c-0.234,1.298-0.463,2.595-0.685,3.892
		c-0.29,1.694-0.569,3.388-0.835,5.078c-0.171,1.096-0.338,2.191-0.501,3.284c-0.212,1.436-0.417,2.872-0.612,4.305
		c0.002,0,0.005,0,0.007,0.001c-4.411,32.423-4.328,63.925,1.412,91.042c14.06,32.986,110.852,4.056,84.897-25.955
		c-8.157-8.385-32.643-35.002-30.807-64.729C245.704,352.768,303.854,306.181,329.747,242.964z"/>
	<path style="opacity:0.3;fill:#218649;enable-background:new    ;" d="M175.767,362.264c-8.656,1.177-17.49,1.796-26.469,1.796
		c-3.052,0-6.087-0.079-9.105-0.219c-0.464,5.131-0.836,10.245-1.087,15.326c9.56,0.601,19.286,0.509,29.12-0.336
		c2.968-0.256,5.911-0.585,8.836-0.971C175.948,372.82,175.439,367.591,175.767,362.264z"/>
	<path style="opacity:0.3;fill:#218649;enable-background:new    ;" d="M219.875,155.845
		c-31.455,24.632-58.615,68.321-77.095,117.559c19.851,6.326,40.997,9.754,62.945,9.754c29.564,0,53.532-23.97,53.532-53.535
		C259.259,197.978,244.018,173.94,219.875,155.845z"/>
</g>
<path id="SVGCleanerId_0" style="fill:#00953A;" d="M8.792,93.9C22.98,194.451,109.37,271.802,213.837,271.802
	c29.566,0,53.533-23.969,53.533-53.534C267.37,117.715,113.564,93.9,8.792,93.9z"/>
<g>
	<path id="SVGCleanerId_0_1_" style="fill:#00953A;" d="M8.792,93.9C22.98,194.451,109.37,271.802,213.837,271.802
		c29.566,0,53.533-23.969,53.533-53.534C267.37,117.715,113.564,93.9,8.792,93.9z"/>
</g>
<path style="fill:#95D600;" d="M13.708,118.099c23.549,88.496,104.214,153.703,200.128,153.703c13.472,0,25.77-4.986,35.179-13.201
	c0.782-1.16,1.533-2.342,2.222-3.566c0.694-3.472,1.063-7.062,1.063-10.741C252.302,149.564,118.254,121.732,13.708,118.099z"/>
<path style="opacity:0.2;fill:#218649;enable-background:new    ;" d="M8.792,93.9c10.938,77.504,64.773,141.212,136.714,166.351
	V108.833C100.775,97.743,50.837,93.9,8.792,93.9z"/>
<path style="fill:#1E252B;" d="M333.646,80.92c-3.583,0-6.489,2.906-6.489,6.489s2.906,6.488,6.489,6.488
	c3.583,0,6.489-2.906,6.489-6.488C340.135,83.824,337.228,80.92,333.646,80.92z M503.209,94.039h-126.22
	c-3.3-12.751-10.435-25.087-20.689-35.303c-14.747-14.692-34.248-23.119-53.504-23.119c-40.94,0-74.248,33.307-74.248,74.246
	c0,11.464-0.102,18.772-0.839,23.643c-13.202-8.982-29.038-16.817-47.367-23.404c-60.52-21.746-133.46-24.993-171.55-24.993
	c-2.546,0-4.966,1.103-6.637,3.025c-1.669,1.922-2.424,4.473-2.069,6.994c7.201,51.027,32.621,97.921,71.581,132.043
	c19.198,16.815,41.058,29.929,64.49,38.963c-11.846,30.554-20.324,63.059-24.613,94.586c-0.016,0.118-0.029,0.236-0.041,0.354
	c-4.654,34.459-4.112,66.853,1.571,93.696c0.118,0.558,0.291,1.102,0.513,1.627c5.349,12.547,18.915,19.641,38.201,19.974
	c0.458,0.008,0.919,0.012,1.382,0.012c12.048,0,25.485-2.674,37.099-7.405c9.599-3.91,22.124-10.884,27.274-21.895
	c4.079-8.722,2.544-17.899-4.324-25.839c-0.113-0.13-0.229-0.257-0.348-0.38c-16.815-17.284-26.634-35.198-28.174-51.097
	c95.51-16.805,168.308-100.369,168.308-200.623c0-2.212-0.041-4.491-0.124-6.957v-0.042c0-3.206,4.794-9.38,9.023-14.826
	c7.352-9.468,16.408-21.169,17.098-35.697h124.205c4.855,0,8.791-3.936,8.791-8.791C512,97.975,508.064,94.039,503.209,94.039z
	 M19.191,102.771c38.767,0.597,102.248,4.849,155.206,23.878c55.859,20.071,84.181,50.896,84.181,91.618
	c0,1.015-0.047,2.018-0.114,3.017c-3.636-15.405-11.039-29.471-22.169-41.999c-14.223-16.013-34.655-29.597-60.729-40.374
	c-49.83-20.597-110.548-27.384-154.916-29.335C20.128,107.318,19.635,105.052,19.191,102.771z M83.251,213.945
	c-26.723-23.405-46.505-53.35-57.569-86.521c71.44,3.698,117.074,16.952,143.169,27.738c49.541,20.477,74.659,50.467,74.659,89.134
	c0,2.69-0.252,5.39-0.723,8.047c-7.81,6.646-17.917,10.669-28.95,10.669c-21.339,0-42.34-3.44-62.26-10.023
	c-0.164-0.08-0.325-0.164-0.496-0.234c-0.566-0.234-1.144-0.404-1.724-0.515C125.233,243.946,102.748,231.02,83.251,213.945z
	 M335.424,169.143c0,14.822-1.751,29.242-5.04,43.071c-1.071-1.288-2.152-2.564-3.23-3.826
	c-9.65-11.295-15.382-18.777-11.813-29.782c3.728-11.494,11.206-16.196,20.259-19.933c-0.164,0.99-0.271,1.993-0.294,3.011
	c-0.013,0.256-0.015,0.513-0.006,0.771C335.383,164.848,335.424,167.036,335.424,169.143z M352.297,130.923
	c-3.242,3.881-9.27,6.133-16.25,8.734c-12.749,4.751-30.209,11.256-37.432,33.526c-6.787,20.926,5.387,35.176,15.169,46.627
	c4.029,4.716,7.849,9.214,10.153,13.724C297.68,304.526,229.306,355.271,149.3,355.271c-1.466,0-2.929-0.018-4.387-0.052
	c-4.867-0.149-8.883,3.727-8.996,8.581c-0.115,4.854,3.727,8.882,8.581,8.996c1.596,0.038,3.198,0.056,4.802,0.056
	c6.044,0,12.022-0.28,17.932-0.798c1.611,15.35,9.241,36.534,32.84,60.866c2.778,3.297,2.259,5.194,1.547,6.714
	c-4.206,8.992-27.237,19.537-49.525,19.157c-5.408-0.094-18.14-1.133-22.018-8.625c-5.098-24.798-5.481-54.879-1.101-87.075
	c0.015-0.115,0.029-0.231,0.04-0.346c4.153-30.315,12.353-61.581,23.807-90.954c19.655,5.788,40.188,8.802,61.017,8.802
	c34.366,0,62.324-27.96,62.324-62.325c0-26.057-9.483-48.939-28.184-68.008c-1.688-1.721-3.47-3.404-5.309-5.064
	c3.457-8.256,3.464-19.077,3.464-35.333c0-31.244,25.42-56.664,56.665-56.664c14.639,0,29.617,6.558,41.094,17.993
	c11.185,11.143,17.599,25.238,17.599,38.672C361.488,117.159,357.293,124.144,352.297,130.923z"/>
<g>
</g>
<g>
</g>
<g>
</g>
<g>
</g>
<g>
</g>
<g>
</g>
<g>
</g>
<g>
</g>
<g>
</g>
<g>
</g>
<g>
</g>
<g>
</g>
<g>
</g>
<g>
</g>
<g>
</g>
</svg>
