<?xml version="1.0" encoding="iso-8859-1"?>
<!-- Generator: Adobe Illustrator 19.0.0, SVG Export Plug-In . SVG Version: 6.00 Build 0)  -->
<svg version="1.1" id="Capa_1" xmlns="http://www.w3.org/2000/svg" xmlns:xlink="http://www.w3.org/1999/xlink" x="0px" y="0px"
	 viewBox="0 0 512.11 512.11" style="enable-background:new 0 0 512.11 512.11;" xml:space="preserve">
<g transform="translate(-1)">
	<g transform="translate(2 1)">
		<g>
			<circle style="fill:#E3E7F2;" cx="33.256" cy="169.722" r="25.6"/>
			<circle style="fill:#E3E7F2;" cx="476.99" cy="169.722" r="25.6"/>
		</g>
		<path style="fill:#A4C2F7;" d="M459.667,446.287c-25.088,22.869-82.688,56.235-204.544,56.235c-6.144,0-12.203-0.085-18.005-0.256
			c-109.568-3.072-162.731-34.304-186.539-55.893c-11.612-11.174-17.219-27.203-15.104-43.179
			c16.981-143.019,73.984-174.677,125.781-207.445l151.723-0.085h36.011c51.797,32.853,108.885,64.512,125.781,207.531
			C476.902,419.146,471.29,435.156,459.667,446.287z"/>
		<path style="fill:#E3E7F2;" d="M423.656,446.287c-23.808,21.675-76.971,52.907-186.539,55.979
			c-109.568-3.072-162.731-34.304-186.539-55.893c-11.612-11.174-17.219-27.203-15.104-43.179
			c16.981-143.019,73.984-174.677,125.781-207.445l151.723-0.085c51.797,32.853,108.885,64.512,125.781,207.531
			C440.891,419.146,435.279,435.156,423.656,446.287z"/>
		<g>
			<path style="fill:#A4C2F7;" d="M260.243,334.97l16.717,32.358c0.868,1.665,2.491,2.804,4.352,3.055l37.094,5.12
				c2.186,0.27,4.017,1.782,4.695,3.877c0.679,2.095,0.082,4.393-1.53,5.894l-26.615,24.747c-1.407,1.303-2.051,3.234-1.707,5.12
				l6.315,35.166c0.354,2.15-0.534,4.316-2.295,5.599c-1.761,1.283-4.095,1.464-6.033,0.468l-33.553-16.751
				c-1.657-0.828-3.608-0.828-5.265,0l-33.468,16.819c-1.938,0.996-4.272,0.815-6.033-0.468c-1.761-1.283-2.649-3.449-2.295-5.599
				l6.315-35.166c0.339-1.886-0.304-3.815-1.707-5.12l-26.615-24.747c-1.612-1.5-2.208-3.799-1.53-5.894
				c0.679-2.095,2.51-3.607,4.695-3.877l37.094-5.12c1.86-0.252,3.483-1.391,4.352-3.055l16.717-32.358
				c0.998-1.914,2.971-3.119,5.129-3.134C257.231,331.89,259.22,333.07,260.243,334.97z"/>
			<path style="fill:#A4C2F7;" d="M400.19,75.855c-1.626,37.734-20.504,72.628-51.2,94.635v50.944c0.026,3.2-1.758,6.14-4.608,7.595
				c-28.014,12.612-58.557,18.598-89.259,17.493c-4.437,0-8.704-0.085-12.8-0.256c-26.414-0.315-52.465-6.189-76.459-17.237
				c-2.85-1.454-4.634-4.395-4.608-7.595V170.49c-30.696-22.007-49.574-56.9-51.2-94.635H400.19z"/>
		</g>
		<path style="fill:#E3E7F2;" d="M374.59,75.855c-1.626,37.734-20.504,72.628-51.2,94.635v50.944c0.026,3.2-1.758,6.14-4.608,7.595
			c-23.994,11.049-50.045,16.922-76.459,17.237c-26.414-0.315-52.465-6.189-76.459-17.237c-2.85-1.454-4.634-4.395-4.608-7.595
			V170.49c-30.696-22.007-49.574-56.9-51.2-94.635H374.59z"/>
		<path style="fill:#A4C2F7;" d="M400.19,75.855c0,37.717-64.939,68.267-145.067,68.267c-4.352,0-8.619-0.085-12.8-0.256
			c-74.155-3.072-132.267-32.341-132.267-68.011s58.112-64.939,132.267-68.011c4.181-0.171,8.448-0.256,12.8-0.256
			C335.251,7.588,400.19,38.138,400.19,75.855z"/>
		<ellipse style="fill:#E3E7F2;" cx="242.323" cy="75.855" rx="132.267" ry="68.011"/>
		<path style="fill:#A4C2F7;" d="M255.123,109.988c-72.158,0-109.09-26.069-110.933-34.355
			c1.843-7.842,38.775-33.911,110.933-33.911s109.09,26.069,110.933,34.355C364.213,83.919,327.281,109.988,255.123,109.988z"/>
		<g>
			<path style="fill:#FFFFFF;" d="M50.579,446.372c23.808,21.589,76.971,52.821,186.539,55.893
				c5.803,0.171,11.861,0.256,18.005,0.256c3.994,0,7.731-0.128,11.588-0.196c-1.306,0-2.705,0-3.994-0.06
				c-109.568-3.072-162.731-34.304-186.539-55.893c-11.612-11.174-17.219-27.203-15.104-43.179
				c15.701-132.437,65.766-169.378,114.219-200.141c-8.508-8.363-32.623-24.798-90.837-24.798c-0.501-0.052-0.995-0.152-1.476-0.299
				c-0.154,0.461-0.393,0.853-0.572,1.331c41.37,3.686,60.041,16.64,67.285,23.765c-48.452,30.763-98.517,67.703-114.219,200.141
				C33.359,419.169,38.967,435.199,50.579,446.372z"/>
			<path style="fill:#FFFFFF;" d="M267.377,7.879c-4.053-0.162-8.115-0.29-12.254-0.29c-4.352,0-8.619,0.085-12.8,0.256
				c-74.155,3.072-132.267,32.341-132.267,68.011c1.626,37.734,20.504,72.628,51.2,94.635v3.772
				c9.442,3.837,18.115,9.347,25.6,16.265V170.49c-30.696-22.007-49.574-56.9-51.2-94.635
				C135.656,40.271,193.487,11.07,267.377,7.879z"/>
			<path style="fill:#FFFFFF;" d="M33.256,195.322c4.508-0.012,8.93-1.238,12.8-3.55c-7.918-4.518-12.806-12.934-12.806-22.05
				s4.888-17.533,12.806-22.05c-3.87-2.312-8.292-3.538-12.8-3.55c-14.138,0-25.6,11.462-25.6,25.6
				C7.656,183.86,19.118,195.322,33.256,195.322z"/>
		</g>
	</g>
	<g>
		<path style="fill:#FFFFFF;" d="M29.035,403.178c3.811-37.724,13.266-74.661,28.049-109.577
			c10.273-22.768,24.692-43.426,42.522-60.919c18.158-16.364,37.958-30.808,59.085-43.102l9.131,14.421
			c-20.148,11.68-39.038,25.406-56.371,40.96c-16.291,16.007-29.466,34.902-38.852,55.723
			c-14.039,33.312-23.01,68.539-26.615,104.508L29.035,403.178z"/>
		<g>
			<path style="fill:#428DFF;" d="M333.266,377.92c-1.645-5.275-6.204-9.115-11.682-9.839l-35.703-4.958l-16.06-31.07
				c-2.448-4.754-7.35-7.739-12.698-7.731c-5.361-0.016-10.279,2.969-12.74,7.731l-16.051,31.07l-35.695,4.958
				c-5.474,0.694-10.05,4.496-11.735,9.751c-1.685,5.254-0.173,11.009,3.876,14.757l25.481,23.714l-6.042,33.57
				c-0.934,5.331,1.224,10.733,5.576,13.951c4.352,3.219,10.148,3.701,14.972,1.247l32.358-16.222l32.307,16.213
				c4.866,2.463,10.708,1.95,15.07-1.323c4.329-3.197,6.458-8.582,5.487-13.875l-6.033-33.596l25.429-23.68
				C333.432,388.878,334.949,383.148,333.266,377.92z M291.145,404.842c-3.54,3.279-5.167,8.135-4.318,12.885l5.325,29.636
				l-28.604-14.37c-4.066-2.036-8.854-2.036-12.919,0l-28.612,14.37l5.316-29.619c0.868-4.744-0.74-9.604-4.267-12.894
				l-22.187-20.685l31.206-4.326c4.607-0.635,8.619-3.467,10.761-7.595l14.276-27.665l14.293,27.648
				c2.133,4.138,6.148,6.978,10.761,7.612l31.215,4.335L291.145,404.842z"/>
			<path style="fill:#428DFF;" d="M45.266,344.008c0.409,0.353,0.869,0.641,1.365,0.853c0.518,0.239,1.055,0.436,1.604,0.589
				c2.19,0.527,4.498,0.223,6.477-0.853c0.939-0.576,1.758-1.326,2.415-2.21c1.379-1.739,2.007-3.956,1.746-6.16
				c-0.261-2.204-1.39-4.213-3.137-5.582c-0.852-0.715-1.835-1.26-2.893-1.604c-2.185-0.642-4.532-0.426-6.562,0.606
				c-2.032,1.116-3.524,3.01-4.13,5.248c-0.541,2.243-0.237,4.606,0.853,6.639l0.973,1.331
				C44.356,343.3,44.789,343.684,45.266,344.008z"/>
			<path style="fill:#428DFF;" d="M257.123,119.522c73.02,0,115.806-25.95,119.253-40.482c0.29-1.261,0.29-2.571,0-3.831
				c-3.277-14.72-45.961-41.02-119.253-41.02c-73.02,0-115.806,25.95-119.253,40.482c-0.29,1.261-0.29,2.571,0,3.831
				C141.146,93.222,183.83,119.522,257.123,119.522z M257.123,51.255c57.609,0,91.042,17.476,100.429,25.745
				c-9.489,8.32-42.479,25.455-100.429,25.455c-57.609,0-91.042-17.476-100.429-25.745C166.183,68.39,199.173,51.255,257.123,51.255
				z"/>
			<path style="fill:#428DFF;" d="M478.99,136.588c-15.596,0.054-29.172,10.672-32.981,25.796
				c-45.653,1.109-72.03,12.134-86.485,22.187v-8.73c30.608-24.014,49.289-60.129,51.2-98.987c0-43.068-67.465-76.8-153.6-76.8
				s-153.6,33.732-153.6,76.8c1.911,38.857,20.592,74.973,51.2,98.987v8.772c-14.455-10.052-40.832-21.077-86.485-22.187
				c-4.189-16.67-20.12-27.625-37.185-25.57s-29.94,16.479-30.052,33.667c-0.112,17.188,12.575,31.778,29.612,34.054
				c17.037,2.277,33.109-8.47,37.514-25.084c42.035,1.058,64.922,10.923,76.587,18.97c-16.107,9.934-31.213,21.405-45.107,34.253
				c-17.826,17.484-32.245,38.13-42.522,60.885c-1.391,2.62-2.321,5.41-3.465,8.115c-0.894,2.098-0.901,4.469-0.02,6.572
				c0.881,2.104,2.575,3.762,4.696,4.598c4.342,1.682,9.237-0.363,11.093-4.634c1.067-2.56,1.929-5.12,3.226-7.569
				c9.382-20.82,22.55-39.714,38.835-55.723c13.326-12.282,27.819-23.234,43.273-32.7v14.345
				c-7.186,7.713-13.771,15.967-19.695,24.687c-2.63,3.914-1.589,9.219,2.325,11.849c3.914,2.63,9.219,1.589,11.849-2.325
				c5.268-7.751,11.107-15.099,17.468-21.982c25.851,11.236,53.733,17.045,81.92,17.067v34.287c0,4.713,3.821,8.533,8.533,8.533
				c4.713,0,8.533-3.821,8.533-8.533v-34.33c28.187-0.023,56.069-5.832,81.92-17.067c6.36,6.882,12.196,14.229,17.459,21.982
				c2.63,3.914,7.935,4.955,11.849,2.325s4.955-7.935,2.325-11.849c-5.923-8.705-12.505-16.944-19.686-24.644v-14.421
				c47.002,30.054,93.73,65.937,108.757,193.016c1.813,13.224-2.756,26.523-12.314,35.84
				c-22.204,20.13-77.611,53.948-198.844,53.948s-176.64-33.818-198.827-53.973c-9.556-9.318-14.122-22.618-12.305-35.84
				c1.766-11.034,2.748-22.263,5.12-33.143c0.822-4.596-2.168-9.009-6.741-9.95c-2.236-0.437-4.554,0.039-6.438,1.322
				c-1.883,1.282-3.176,3.264-3.589,5.505c-2.492,11.366-3.507,22.869-5.325,34.295c-2.422,18.697,4.178,37.432,17.783,50.483
				c29.414,26.615,89.728,58.368,210.321,58.368s180.907-31.761,210.313-58.402c13.597-13.042,20.199-31.763,17.792-50.449
				c-15.838-134.025-67.49-173.978-115.627-204.8c11.674-8.047,34.543-17.92,76.518-18.935
				c4.568,17.074,21.434,27.821,38.839,24.748c17.406-3.073,29.572-18.944,28.018-36.55
				C511.423,150.06,496.664,136.565,478.99,136.588z M257.123,17.122c81.664,0,136.533,30.891,136.533,59.733
				s-54.869,59.733-136.533,59.733S120.59,105.698,120.59,76.855S175.459,17.122,257.123,17.122z M194.83,196.049
				c2.922,0.991,6.151,0.328,8.446-1.735c2.295-2.063,3.297-5.204,2.622-8.214c-0.675-3.011-2.923-5.422-5.879-6.307
				c-30.085-8.619-54.975-29.822-68.267-58.155c27.571,19.482,72.96,32.017,125.372,32.017c52.113,0,97.28-12.399,124.919-31.693
				c-13.257,28.09-37.924,49.146-67.746,57.83c-2.956,0.885-5.204,3.296-5.879,6.307c-0.675,3.011,0.327,6.151,2.622,8.214
				c2.295,2.063,5.524,2.726,8.446,1.735c7.919-2.503,15.605-5.689,22.972-9.523v35.84c-26.813,11.951-55.995,17.636-85.333,16.623
				c-29.34,1.002-58.524-4.694-85.333-16.657v-35.84C179.177,190.341,186.886,193.538,194.83,196.049z M35.256,187.788
				c-9.426,0-17.067-7.641-17.067-17.067c0-9.426,7.641-17.067,17.067-17.067s17.067,7.641,17.067,17.067
				C52.323,180.147,44.682,187.788,35.256,187.788z M478.99,187.788c-9.426,0-17.067-7.641-17.067-17.067
				c0-9.426,7.641-17.067,17.067-17.067c9.426,0,17.067,7.641,17.067,17.067C496.056,180.147,488.415,187.788,478.99,187.788z"/>
		</g>
	</g>
</g>
<g>
</g>
<g>
</g>
<g>
</g>
<g>
</g>
<g>
</g>
<g>
</g>
<g>
</g>
<g>
</g>
<g>
</g>
<g>
</g>
<g>
</g>
<g>
</g>
<g>
</g>
<g>
</g>
<g>
</g>
</svg>
