<svg id="Layer_3" enable-background="new 0 0 64 64" height="512" viewBox="0 0 64 64" width="512" xmlns="http://www.w3.org/2000/svg"><path d="m48 38-2.784 3.48-9.216-20.48-4 4-4-9-10.215 24.516-3.785-8.516-10 30h56z" fill="#48a187"/><path d="m7.676 50.971c2.65.666 5.439 1.029 8.324 1.029 11.813 0 22.081-5.969 27.313-14.749l-7.313-16.251-4 4-4-9-10.215 24.516-3.785-8.516z" fill="#62d7c3"/><path d="m27 32 4-3 4 4 4.096-5.12-3.096-6.88-4 4-4-9-4.091 9.818z" fill="#e8e8e8"/><path d="m43.1 44.125 3.9 4.875 4-5-3-6z" fill="#e8e8e8"/><circle cx="32" cy="8" fill="#f1b869" r="6"/><path d="m15 18c1.657 0 3-1.343 3-3s-1.343-3-3-3c-.36 0-.7.074-1.019.19.003-.065.019-.125.019-.19 0-2.209-1.791-4-4-4s-4 1.791-4 4c0 .065.016.125.019.19-.319-.116-.659-.19-1.019-.19-1.657 0-3 1.343-3 3s1.343 3 3 3z" fill="#74a2d9"/><path d="m59 18c1.657 0 3-1.343 3-3s-1.343-3-3-3c-.36 0-.7.074-1.019.19.003-.065.019-.125.019-.19 0-2.209-1.791-4-4-4s-4 1.791-4 4c0 .065.016.125.019.19-.319-.116-.659-.19-1.019-.19-1.657 0-3 1.343-3 3s1.343 3 3 3z" fill="#74a2d9"/><path d="m1 61h62v2h-62z"/><path d="m4.949 62.316-1.897-.633 10-30c.13-.392.488-.662.9-.683.406-.025.794.216.962.593l3.785 8.517-1.827.812-2.738-6.16z"/><path d="m13.923 52.385-1.846-.77 15-36c.153-.368.512-.61.911-.615.402-.02.764.229.925.594l3.409 7.67 2.971-2.971c.232-.232.564-.334.887-.276.323.059.597.273.732.573l9 20-1.824.82-8.405-18.679-2.976 2.976c-.232.232-.564.332-.89.276-.324-.061-.597-.276-.731-.577l-3.057-6.877z"/><path d="m59.105 62.447-11.3-22.602-11.024 13.78-1.562-1.25 12-15c.213-.267.55-.405.886-.369.339.035.636.242.789.547l12 24z"/><path d="m35 34c-.265 0-.519-.104-.707-.293l-3.387-3.387-3.306 2.48c-.237.178-.542.241-.83.174-.289-.068-.532-.261-.665-.526l-3.091-6.182 1.789-.895 2.555 5.11 3.042-2.281c.398-.3.955-.26 1.307.093l3.21 3.21 3.398-4.248 1.562 1.25-4.096 5.12c-.178.222-.441.357-.726.373-.018.001-.036.002-.055.002z"/><path d="m47 50c-.304 0-.591-.138-.781-.375l-4-5 1.562-1.25 3.219 4.024 3.219-4.024 1.562 1.25-4 5c-.19.237-.477.375-.781.375z"/><path d="m32 15c-3.86 0-7-3.141-7-7s3.14-7 7-7 7 3.141 7 7-3.14 7-7 7zm0-12c-2.757 0-5 2.243-5 5s2.243 5 5 5 5-2.243 5-5-2.243-5-5-5z"/><path d="m15 19h-10c-2.206 0-4-1.794-4-4 0-2.239 1.882-4.043 4.1-3.999.464-2.279 2.485-4.001 4.9-4.001s4.436 1.722 4.9 4.001c2.212-.069 4.1 1.76 4.1 3.999 0 2.206-1.794 4-4 4zm-10-6c-1.103 0-2 .897-2 2s.897 2 2 2h10c1.103 0 2-.897 2-2s-.897-2-2-2c-.217 0-.438.042-.677.129-.314.115-.665.064-.934-.134-.269-.197-.422-.518-.407-.851.001-.032.014-.149.018-.181 0-1.617-1.346-2.963-3-2.963s-3 1.346-3 3c.004.031.017.112.018.145.015.333-.138.653-.407.851-.27.199-.621.25-.934.134-.239-.088-.46-.13-.677-.13z"/><path d="m59 19h-10c-2.206 0-4-1.794-4-4 0-2.239 1.867-4.043 4.1-3.999.464-2.279 2.485-4.001 4.9-4.001s4.436 1.722 4.9 4.001c2.23-.069 4.1 1.76 4.1 3.999 0 2.206-1.794 4-4 4zm-10-6c-1.103 0-2 .897-2 2s.897 2 2 2h10c1.103 0 2-.897 2-2s-.897-2-2-2c-.217 0-.438.042-.677.129-.313.115-.664.064-.934-.134-.269-.197-.422-.518-.407-.851.001-.032.014-.149.018-.181 0-1.617-1.346-2.963-3-2.963s-3 1.346-3 3c.004.031.017.112.018.145.015.333-.138.653-.407.851-.27.199-.62.25-.934.134-.239-.088-.46-.13-.677-.13z"/></svg>