<svg id="Layer_3" enable-background="new 0 0 64 64" height="512" viewBox="0 0 64 64" width="512" xmlns="http://www.w3.org/2000/svg"><path d="m48.895 37.553c-.153-.305-.45-.512-.789-.547-.336-.036-.673.103-.886.369l-1.762 2.203-8.546-18.988c-.135-.3-.409-.515-.732-.573s-.655.044-.887.276l-2.971 2.971-3.409-7.67c-.162-.365-.523-.613-.925-.594-.399.005-.758.247-.911.615l-9.322 22.372-2.842-6.394c-.167-.377-.556-.618-.962-.593-.412.021-.77.291-.9.683l-9.772 29.317h-2.279v2h62v-2h-2.382zm-1.09 2.292 2.015 4.03-2.82 3.524-2.619-3.275zm-19.775-21.316 3.057 6.877c.134.301.407.517.731.577.325.056.657-.044.89-.276l2.976-2.976 2.25 5.001-3.016 3.77-3.21-3.21c-.353-.352-.91-.392-1.308-.092l-3.042 2.281-2.35-4.701zm-13.897 16.234 2.563 5.766-4.619 11.086 1.846.77 4.895-11.749.095-.042-.04-.09 5.118-12.284 2.114 4.227c.133.266.376.458.665.526.289.067.593.004.83-.174l3.306-2.479 3.387 3.387c.188.189.442.293.707.293.019 0 .037-.001.055-.002.284-.016.548-.151.726-.373l3.075-3.843 5.198 11.551-8.834 11.042 1.562 1.25 6.319-7.899 3.119 3.899c.189.237.476.375.78.375s.591-.138.781-.375l3.024-3.78 7.577 15.155h-52.994z"/><path d="m32 15c3.86 0 7-3.141 7-7s-3.14-7-7-7-7 3.141-7 7 3.14 7 7 7zm0-12c2.757 0 5 2.243 5 5s-2.243 5-5 5-5-2.243-5-5 2.243-5 5-5z"/><path d="m5 19h10c2.206 0 4-1.794 4-4 0-2.239-1.888-4.068-4.1-3.999-.464-2.279-2.485-4.001-4.9-4.001s-4.436 1.722-4.9 4.001c-2.218-.044-4.1 1.76-4.1 3.999 0 2.206 1.794 4 4 4zm0-6c.217 0 .438.042.677.129.313.116.665.065.934-.134.269-.197.422-.518.407-.851-.001-.032-.014-.113-.018-.144 0-1.654 1.346-3 3-3s3 1.346 3 2.964c-.004.031-.017.148-.018.181-.015.333.138.653.407.851.27.198.62.249.934.134.239-.088.46-.13.677-.13 1.103 0 2 .897 2 2s-.897 2-2 2h-10c-1.103 0-2-.897-2-2s.897-2 2-2z"/><path d="m49 19h10c2.206 0 4-1.794 4-4 0-2.239-1.87-4.068-4.1-3.999-.464-2.279-2.485-4.001-4.9-4.001s-4.436 1.722-4.9 4.001c-2.233-.044-4.1 1.76-4.1 3.999 0 2.206 1.794 4 4 4zm0-6c.217 0 .438.042.677.129.314.116.665.065.934-.134.269-.197.422-.518.407-.851-.001-.032-.014-.113-.018-.144 0-1.654 1.346-3 3-3s3 1.346 3 2.964c-.004.031-.017.148-.018.181-.015.333.138.653.407.851.27.198.621.249.934.134.239-.088.46-.13.677-.13 1.103 0 2 .897 2 2s-.897 2-2 2h-10c-1.103 0-2-.897-2-2s.897-2 2-2z"/></svg>