<?xml version="1.0" encoding="iso-8859-1"?>
<!-- Generator: Adobe Illustrator 19.0.0, SVG Export Plug-In . SVG Version: 6.00 Build 0)  -->
<svg version="1.1" id="Capa_1" xmlns="http://www.w3.org/2000/svg" xmlns:xlink="http://www.w3.org/1999/xlink" x="0px" y="0px"
	 viewBox="0 0 512 512" style="enable-background:new 0 0 512 512;" xml:space="preserve">
<g>
	<g transform="translate(1 1)">
		<path style="fill:#A4C2F7;" d="M502.467,255c0,136.672-110.795,247.467-247.467,247.467c-4.267,0-8.533-0.085-12.715-0.341h-0.171
			C110.673,495.215,7.641,386.623,7.641,255S110.673,14.785,242.115,7.875h0.171c4.181-0.256,8.448-0.341,12.715-0.341
			C391.672,7.533,502.467,118.328,502.467,255z"/>
		<path style="fill:#E3E7F2;" d="M476.867,255c-0.003,131.662-103.098,240.27-234.581,247.125h-0.171
			C110.673,495.215,7.641,386.623,7.641,255S110.673,14.785,242.115,7.875h0.171C373.769,14.73,476.864,123.338,476.867,255z"/>
		<path style="fill:#7FABFA;" d="M434.2,255c0.024,42.475-15.105,83.565-42.667,115.883c-4.517,5.44-9.422,10.545-14.677,15.275
			c-8.57,8.056-17.95,15.205-27.989,21.333c-5.187,3.289-10.573,6.253-16.128,8.875c-8.547,4.167-17.423,7.62-26.539,10.325
			c-5.522,1.704-11.134,3.1-16.811,4.181c-8.529,1.674-17.172,2.701-25.856,3.072c-2.816,0.171-5.632,0.256-8.533,0.256
			c-2.901,0-5.717-0.085-8.533-0.256l-4.267-0.256c-7.251-0.46-14.463-1.4-21.589-2.816c-5.677-1.081-11.289-2.477-16.811-4.181
			c-9.116-2.705-17.992-6.159-26.539-10.325c-5.555-2.621-10.941-5.585-16.128-8.875c-10.04-6.128-19.419-13.277-27.989-21.333
			c-5.255-4.73-10.161-9.835-14.677-15.275c-56.888-66.783-56.888-164.983,0-231.765c4.517-5.44,9.422-10.545,14.677-15.275
			c8.57-8.056,17.95-15.205,27.989-21.333c5.187-3.289,10.573-6.253,16.128-8.875c8.547-4.167,17.423-7.62,26.539-10.325
			c5.522-1.704,11.134-3.1,16.811-4.181c7.126-1.416,14.339-2.356,21.589-2.816l4.267-0.256c2.816-0.171,5.632-0.256,8.533-0.256
			c2.901,0,5.717,0.085,8.533,0.256c8.684,0.371,17.327,1.398,25.856,3.072c5.677,1.081,11.289,2.477,16.811,4.181
			c9.116,2.705,17.992,6.159,26.539,10.325c5.555,2.621,10.941,5.585,16.128,8.875c10.04,6.128,19.419,13.277,27.989,21.333
			c5.255,4.73,10.161,9.835,14.677,15.275C419.095,171.435,434.224,212.525,434.2,255z"/>
		<path style="fill:#E3E7F2;" d="M408.6,255c0.024,42.475-15.105,83.565-42.667,115.883c-4.517,5.44-9.422,10.545-14.677,15.275
			c-8.57,8.056-17.95,15.205-27.989,21.333c-5.187,3.289-10.573,6.253-16.128,8.875c-8.547,4.167-17.423,7.62-26.539,10.325
			c-5.522,1.704-11.134,3.1-16.811,4.181c-7.126,1.416-14.339,2.356-21.589,2.816c-7.251-0.46-14.463-1.4-21.589-2.816
			c-5.677-1.081-11.289-2.477-16.811-4.181c-9.116-2.705-17.992-6.159-26.539-10.325c-5.555-2.621-10.941-5.585-16.128-8.875
			c-10.04-6.128-19.419-13.277-27.989-21.333c-5.255-4.73-10.161-9.835-14.677-15.275c-56.888-66.783-56.888-164.983,0-231.765
			c4.517-5.44,9.422-10.545,14.677-15.275c8.57-8.056,17.95-15.205,27.989-21.333c5.187-3.289,10.573-6.253,16.128-8.875
			c8.547-4.167,17.423-7.62,26.539-10.325c5.522-1.704,11.134-3.1,16.811-4.181c7.126-1.416,14.339-2.356,21.589-2.816
			c7.251,0.46,14.463,1.4,21.589,2.816c5.677,1.081,11.289,2.477,16.811,4.181c9.116,2.705,17.992,6.159,26.539,10.325
			c5.555,2.621,10.941,5.585,16.128,8.875c10.04,6.128,19.419,13.277,27.989,21.333c5.255,4.73,10.161,9.835,14.677,15.275
			C393.495,171.435,408.624,212.525,408.6,255z"/>
		<path style="fill:#A4C2F7;" d="M306.2,255c0,28.277-22.923,51.2-51.2,51.2c-4.317-0.013-8.616-0.558-12.8-1.621
			c-22.605-5.815-38.406-26.195-38.406-49.536s15.801-43.721,38.406-49.536c4.172-1.134,8.477-1.708,12.8-1.707
			C283.277,203.8,306.2,226.723,306.2,255z"/>
		<path style="fill:#D4E1F4;" d="M280.6,255c-0.055,23.329-15.826,43.691-38.4,49.579c-22.605-5.815-38.406-26.195-38.406-49.536
			s15.801-43.721,38.406-49.536C264.777,211.336,280.563,231.683,280.6,255z"/>
		<path style="fill:#FFFFFF;" d="M267.885,502.125h-0.171C136.273,495.215,33.241,386.623,33.241,255S136.273,14.785,267.715,7.875
			h0.247c-4.289-0.228-8.61-0.341-12.962-0.341c-4.267,0-8.533,0.085-12.715,0.341h-0.171C110.673,14.785,7.641,123.377,7.641,255
			s103.032,240.215,234.474,247.125h0.171c4.181,0.256,8.448,0.341,12.715,0.341c4.267,0,8.67-0.119,12.971-0.341H267.885z"/>
	</g>
	<g>
		<path style="fill:#428DFF;" d="M256,0C114.615,0,0,114.615,0,256s114.615,256,256,256s256-114.615,256-256
			C511.84,114.681,397.319,0.16,256,0z M256,494.933C124.041,494.933,17.067,387.959,17.067,256S124.041,17.067,256,17.067
			S494.933,124.041,494.933,256C494.783,387.897,387.897,494.783,256,494.933z"/>
		<path style="fill:#428DFF;" d="M256,68.267C152.318,68.267,68.267,152.318,68.267,256S152.318,443.733,256,443.733
			S443.733,359.682,443.733,256C443.616,152.366,359.634,68.384,256,68.267z M392.533,357.965V281.6c0-4.713-3.82-8.533-8.533-8.533
			s-8.533,3.82-8.533,8.533v96.077c-7.851,7.707-16.424,14.642-25.6,20.71V230.4c0-4.713-3.821-8.533-8.533-8.533
			s-8.533,3.82-8.533,8.533v177.801c-8.23,4.225-16.792,7.769-25.6,10.598V332.8c0-4.713-3.82-8.533-8.533-8.533
			s-8.533,3.82-8.533,8.533v90.453c-8.445,1.645-17.003,2.65-25.6,3.004v-76.39c0-4.713-3.821-8.533-8.533-8.533
			c-4.713,0-8.533,3.821-8.533,8.533v76.365c-8.597-0.354-17.155-1.358-25.6-3.004V332.8c0-4.713-3.821-8.533-8.533-8.533
			s-8.533,3.82-8.533,8.533v85.999c-8.808-2.829-17.37-6.374-25.6-10.598v-92.467c0-4.713-3.821-8.533-8.533-8.533
			c-4.713,0-8.533,3.821-8.533,8.533v82.654c-9.176-6.068-17.749-13.004-25.6-20.71V264.533c0-4.713-3.821-8.533-8.533-8.533
			c-4.713,0-8.533,3.821-8.533,8.533v93.431c-45.521-60.362-45.521-143.585,0-203.947V230.4c0,4.713,3.821,8.533,8.533,8.533
			c4.713,0,8.533-3.821,8.533-8.533v-96.077c7.851-7.707,16.424-14.642,25.6-20.71V281.6c0,4.713,3.821,8.533,8.533,8.533
			c4.713,0,8.533-3.821,8.533-8.533V103.799c8.23-4.225,16.792-7.769,25.6-10.598V179.2c0,4.713,3.82,8.533,8.533,8.533
			s8.533-3.82,8.533-8.533V88.747c8.445-1.645,17.003-2.65,25.6-3.004v76.39c0,4.713,3.821,8.533,8.533,8.533
			c4.713,0,8.533-3.821,8.533-8.533V85.769c8.597,0.354,17.155,1.358,25.6,3.004V179.2c0,4.713,3.82,8.533,8.533,8.533
			s8.533-3.82,8.533-8.533V93.201c8.808,2.829,17.37,6.374,25.6,10.598v92.467c0,4.713,3.82,8.533,8.533,8.533
			s8.533-3.821,8.533-8.533v-82.654c9.176,6.068,17.749,13.004,25.6,20.71v113.143c0,4.713,3.821,8.533,8.533,8.533
			s8.533-3.82,8.533-8.533v-93.431c45.521,60.362,45.521,143.585,0,203.947V357.965z"/>
		<path style="fill:#428DFF;" d="M256,196.267c-32.99,0-59.733,26.744-59.733,59.733S223.01,315.733,256,315.733
			S315.733,288.99,315.733,256C315.696,223.026,288.974,196.304,256,196.267z M256,298.667c-23.564,0-42.667-19.103-42.667-42.667
			c0-23.564,19.103-42.667,42.667-42.667c23.564,0,42.667,19.103,42.667,42.667C298.638,279.552,279.552,298.638,256,298.667z"/>
		<path style="fill:#428DFF;" d="M256,230.4c-4.713,0-8.533,3.821-8.533,8.533c0,4.713,3.821,8.533,8.533,8.533
			c4.713,0,8.533,3.821,8.533,8.533c0,4.713,3.82,8.533,8.533,8.533s8.533-3.821,8.533-8.533C281.6,241.862,270.139,230.4,256,230.4
			z"/>
		<path style="fill:#428DFF;" d="M248.149,45.909c0.186,0.544,0.445,1.06,0.768,1.536c0.315,0.447,0.657,0.875,1.024,1.28
			c1.625,1.575,3.796,2.461,6.059,2.475c2.259-0.033,4.422-0.917,6.059-2.475c0.367-0.405,0.709-0.833,1.024-1.28
			c0.32-0.478,0.578-0.994,0.768-1.536c0.248-0.482,0.418-1.001,0.503-1.536c0.102-0.564,0.162-1.134,0.179-1.707
			c-0.018-0.573-0.077-1.143-0.179-1.707c-0.085-0.535-0.255-1.054-0.503-1.536c-0.19-0.542-0.448-1.058-0.768-1.536
			c-0.315-0.447-0.657-0.875-1.024-1.28c-3.422-3.157-8.695-3.157-12.117,0c-0.367,0.405-0.709,0.833-1.024,1.28
			c-0.323,0.476-0.581,0.992-0.768,1.536c-0.247,0.484-0.419,1.001-0.512,1.536c-0.095,0.564-0.152,1.135-0.171,1.707
			c0.019,0.572,0.076,1.142,0.171,1.707C247.73,44.908,247.903,45.426,248.149,45.909z"/>
		<path style="fill:#428DFF;" d="M97.28,108.373c0.169,0.517,0.413,1.006,0.725,1.451c0.332,0.464,0.694,0.906,1.084,1.323
			c0.418,0.391,0.86,0.756,1.323,1.092c0.446,0.308,0.935,0.549,1.451,0.717c0.516,0.255,1.064,0.439,1.63,0.546
			c0.539,0.092,1.084,0.152,1.63,0.179c2.266-0.043,4.428-0.96,6.033-2.56c1.586-1.615,2.501-3.771,2.56-6.033
			c-0.027-0.546-0.087-1.091-0.179-1.63c-0.111-0.565-0.294-1.112-0.546-1.63c-0.165-0.516-0.41-1.002-0.725-1.442
			c-0.329-0.469-0.691-0.914-1.084-1.331c-0.418-0.392-0.862-0.754-1.331-1.084c-0.454-0.305-0.952-0.538-1.476-0.691
			c-0.518-0.249-1.066-0.433-1.63-0.546c-0.539-0.092-1.083-0.152-1.63-0.179c-4.626,0.203-8.33,3.907-8.533,8.533
			c0.027,0.546,0.087,1.091,0.179,1.63C96.861,107.29,97.036,107.846,97.28,108.373z"/>
		<path style="fill:#428DFF;" d="M47.445,248.917c-0.478-0.32-0.994-0.578-1.536-0.768c-0.482-0.248-1.001-0.418-1.536-0.503
			c-0.564-0.102-1.134-0.162-1.707-0.179c-0.573,0.018-1.143,0.077-1.707,0.179c-0.535,0.085-1.054,0.255-1.536,0.503
			c-0.542,0.19-1.058,0.448-1.536,0.768c-0.447,0.315-0.875,0.657-1.28,1.024c-3.157,3.422-3.157,8.695,0,12.117
			c0.405,0.367,0.833,0.709,1.28,1.024c0.476,0.323,0.992,0.582,1.536,0.768c0.484,0.246,1.001,0.419,1.536,0.512
			c0.564,0.095,1.135,0.152,1.707,0.171c0.572-0.019,1.142-0.076,1.707-0.171c0.535-0.093,1.052-0.266,1.536-0.512
			c0.544-0.186,1.06-0.445,1.536-0.768c0.447-0.315,0.875-0.657,1.28-1.024c1.575-1.625,2.461-3.796,2.475-6.059
			c-0.033-2.259-0.917-4.422-2.475-6.059C48.32,249.574,47.892,249.232,47.445,248.917z"/>
		<path style="fill:#428DFF;" d="M105.148,398.285c-0.546,0.027-1.091,0.087-1.63,0.179c-0.565,0.111-1.112,0.294-1.63,0.546
			c-0.516,0.165-1.002,0.41-1.442,0.725c-0.469,0.329-0.914,0.691-1.331,1.084c-0.392,0.418-0.754,0.862-1.084,1.331
			c-0.314,0.441-0.558,0.927-0.725,1.442c-0.249,0.518-0.433,1.066-0.546,1.63c-0.092,0.539-0.152,1.083-0.179,1.63
			c0.203,4.626,3.907,8.33,8.533,8.533c0.546-0.027,1.091-0.087,1.63-0.179c0.562-0.093,1.109-0.256,1.63-0.486
			c0.515-0.169,1.003-0.411,1.451-0.717c0.463-0.337,0.904-0.702,1.323-1.092c0.391-0.418,0.756-0.86,1.092-1.323
			c0.308-0.446,0.549-0.935,0.717-1.451c0.255-0.516,0.439-1.064,0.546-1.63c0.092-0.539,0.152-1.083,0.179-1.63
			c-0.043-2.266-0.96-4.428-2.56-6.033C109.521,399.273,107.389,398.359,105.148,398.285z"/>
		<path style="fill:#428DFF;" d="M263.851,466.091c-0.186-0.544-0.445-1.06-0.768-1.536c-0.315-0.447-0.657-0.875-1.024-1.28
			c-1.625-1.575-3.796-2.461-6.059-2.475c-2.259,0.033-4.422,0.917-6.059,2.475c-0.367,0.405-0.709,0.833-1.024,1.28
			c-0.32,0.478-0.578,0.994-0.768,1.536c-0.248,0.482-0.418,1.001-0.503,1.536c-0.239,1.125-0.239,2.288,0,3.413
			c0.085,0.535,0.255,1.054,0.503,1.536c0.19,0.542,0.448,1.058,0.768,1.536c0.315,0.447,0.657,0.875,1.024,1.28
			c3.422,3.157,8.695,3.157,12.117,0c0.367-0.405,0.709-0.833,1.024-1.28c0.323-0.476,0.582-0.992,0.768-1.536
			c0.246-0.484,0.419-1.001,0.512-1.536c0.228-1.126,0.228-2.287,0-3.413C264.27,467.092,264.097,466.574,263.851,466.091z"/>
		<path style="fill:#428DFF;" d="M414.72,403.627c-0.169-0.517-0.413-1.006-0.725-1.451c-0.332-0.464-0.694-0.906-1.084-1.323
			c-0.418-0.391-0.86-0.756-1.323-1.092c-0.446-0.308-0.935-0.549-1.451-0.717c-0.516-0.255-1.064-0.439-1.63-0.546
			c-0.539-0.092-1.084-0.152-1.63-0.179c-2.266,0.043-4.428,0.96-6.033,2.56c-1.586,1.615-2.501,3.771-2.56,6.033
			c0.027,0.546,0.087,1.091,0.179,1.63c0.111,0.565,0.294,1.112,0.546,1.63c0.165,0.516,0.41,1.002,0.725,1.442
			c0.329,0.469,0.691,0.914,1.084,1.331c0.418,0.392,0.862,0.754,1.331,1.084c0.441,0.314,0.927,0.558,1.442,0.725
			c0.518,0.249,1.066,0.433,1.63,0.546c0.539,0.092,1.083,0.152,1.63,0.179c4.626-0.203,8.33-3.907,8.533-8.533
			c-0.027-0.546-0.087-1.091-0.179-1.63C415.118,404.734,414.955,404.166,414.72,403.627z"/>
		<path style="fill:#428DFF;" d="M464.555,263.083c0.478,0.32,0.994,0.578,1.536,0.768c0.482,0.248,1.001,0.418,1.536,0.503
			c1.125,0.239,2.288,0.239,3.413,0c0.535-0.085,1.054-0.255,1.536-0.503c0.542-0.19,1.058-0.448,1.536-0.768
			c0.447-0.315,0.875-0.657,1.28-1.024c3.157-3.422,3.157-8.695,0-12.117c-0.405-0.367-0.833-0.709-1.28-1.024
			c-0.476-0.323-0.992-0.581-1.536-0.768c-0.484-0.247-1.001-0.419-1.536-0.512c-1.126-0.228-2.287-0.228-3.413,0
			c-0.535,0.093-1.052,0.266-1.536,0.512c-0.544,0.186-1.06,0.445-1.536,0.768c-0.447,0.315-0.875,0.657-1.28,1.024
			c-1.575,1.625-2.461,3.796-2.475,6.059c0.033,2.259,0.917,4.422,2.475,6.059C463.68,262.426,464.108,262.768,464.555,263.083z"/>
		<path style="fill:#428DFF;" d="M406.852,113.715c0.546-0.027,1.091-0.087,1.63-0.179c0.565-0.111,1.112-0.294,1.63-0.546
			c0.516-0.165,1.002-0.41,1.442-0.725c0.469-0.329,0.914-0.691,1.331-1.084c0.392-0.418,0.754-0.862,1.084-1.331
			c0.326-0.45,0.579-0.948,0.751-1.476c0.249-0.518,0.433-1.066,0.546-1.63c0.092-0.539,0.152-1.083,0.179-1.63
			c-0.203-4.626-3.907-8.33-8.533-8.533c-0.546,0.027-1.091,0.087-1.63,0.179c-0.564,0.112-1.112,0.296-1.63,0.546
			c-0.515,0.169-1.003,0.411-1.451,0.717c-0.463,0.337-0.904,0.702-1.323,1.092c-0.391,0.418-0.756,0.86-1.092,1.323
			c-0.308,0.446-0.549,0.935-0.717,1.451c-0.255,0.516-0.439,1.064-0.546,1.63c-0.092,0.539-0.152,1.083-0.179,1.63
			c0.043,2.266,0.96,4.428,2.56,6.033C402.502,112.738,404.623,113.642,406.852,113.715z"/>
	</g>
</g>
<g>
</g>
<g>
</g>
<g>
</g>
<g>
</g>
<g>
</g>
<g>
</g>
<g>
</g>
<g>
</g>
<g>
</g>
<g>
</g>
<g>
</g>
<g>
</g>
<g>
</g>
<g>
</g>
<g>
</g>
</svg>
