<?xml version="1.0" encoding="iso-8859-1"?>
<!-- Generator: Adobe Illustrator 19.0.0, SVG Export Plug-In . SVG Version: 6.00 Build 0)  -->
<svg version="1.1" id="Capa_1" xmlns="http://www.w3.org/2000/svg" xmlns:xlink="http://www.w3.org/1999/xlink" x="0px" y="0px"
	 viewBox="0 0 511.91 511.91" style="enable-background:new 0 0 511.91 511.91;" xml:space="preserve">
<g>
	<g transform="translate(1 1)">
		<path style="fill:#A4C2F7;" d="M123.306,196.786c-2.9-2.185-6.896-2.185-9.796,0L7.475,285.191L75.34,490.588
			c3.208,7.511,10.773,12.211,18.927,11.759h48.282c8.154,0.452,15.719-4.248,18.927-11.759l67.866-205.397L123.306,196.786z"/>
		<g>
			<path style="fill:#E3E7F2;" d="M229.341,285.191l-67.866,205.397c-3.208,7.511-10.773,12.211-18.927,11.759h-11.093
				l32.631-180.053L229.341,285.191z"/>
			<path style="fill:#E3E7F2;" d="M105.361,502.347H94.267c-8.154,0.452-15.719-4.248-18.927-11.759L7.475,285.191l65.254,37.103
				L105.361,502.347z"/>
		</g>
		<path style="fill:#A4C2F7;" d="M118.408,195.147L72.729,322.294L7.475,285.191l106.035-88.405
			C114.899,195.679,116.633,195.099,118.408,195.147z"/>
		<polygon style="fill:#E3E7F2;" points="164.087,322.268 72.729,322.268 118.408,195.147 		"/>
		<path style="fill:#A4C2F7;" d="M396.373,196.786c-2.9-2.185-6.896-2.185-9.796,0l-106.035,88.405l67.866,205.397
			c3.208,7.511,10.773,12.211,18.927,11.759h48.282c8.154,0.452,15.719-4.248,18.927-11.759l67.866-205.397L396.373,196.786z"/>
		<g>
			<path style="fill:#E3E7F2;" d="M502.408,285.191l-67.866,205.397c-3.208,7.511-10.773,12.211-18.927,11.759h-11.093
				l32.631-180.053L502.408,285.191z"/>
			<path style="fill:#E3E7F2;" d="M378.427,502.347h-11.093c-8.154,0.452-15.719-4.248-18.927-11.759l-67.866-205.397l65.254,37.103
				L378.427,502.347z"/>
		</g>
		<polygon style="fill:#A4C2F7;" points="437.154,322.268 345.796,322.268 391.475,195.147 		"/>
		<path style="fill:#E3E7F2;" d="M502.408,285.191l-65.254,37.103l-45.679-127.147c1.775-0.048,3.509,0.532,4.898,1.638
			L502.408,285.191z"/>
		<path style="fill:#A4C2F7;" d="M261.341,10.059c-3.537-3.528-9.263-3.528-12.8,0L109.875,152.481l88.747,330.923
			c3.03,11.175,13.169,18.936,24.747,18.944h63.147c11.578-0.008,21.716-7.769,24.747-18.944l88.747-330.923L261.341,10.059z"/>
		<g>
			<path style="fill:#E3E7F2;" d="M400.008,152.481l-88.747,330.923c-3.03,11.175-13.169,18.936-24.747,18.944h-14.507
				l42.667-290.133L400.008,152.481z"/>
			<path style="fill:#E3E7F2;" d="M237.875,502.347h-14.507c-11.578-0.008-21.716-7.769-24.747-18.944l-88.747-330.923
				l85.333,59.733L237.875,502.347z"/>
			<path style="fill:#E3E7F2;" d="M254.941,7.413l-59.733,204.801l-85.333-59.733L248.541,10.059
				C250.216,8.329,252.534,7.371,254.941,7.413z"/>
		</g>
		<polygon style="fill:#A4C2F7;" points="314.675,212.214 195.208,212.214 254.941,7.414 		"/>
		<path style="fill:#E3E7F2;" d="M400.008,152.481l-85.333,59.733L254.941,7.413c2.408-0.041,4.725,0.917,6.4,2.647L400.008,152.481
			z"/>
		<g>
			<path style="fill:#FFFFFF;" d="M224.221,483.403l-15.582-58.086l-14.123,42.761l4.105,15.36
				c3.043,11.161,13.178,18.906,24.747,18.91h25.6C237.39,502.339,227.252,494.578,224.221,483.403z"/>
			<path style="fill:#FFFFFF;" d="M374.007,490.588l-21.564-65.271l-11.477,42.761l7.441,22.511
				c3.208,7.511,10.773,12.211,18.927,11.759h25.6C384.78,502.799,377.215,498.099,374.007,490.588z"/>
			<path style="fill:#FFFFFF;" d="M100.94,490.588L33.075,285.191l106.035-88.405c1.389-1.106,3.123-1.686,4.898-1.638
				c1.059,0.012,2.106,0.233,3.081,0.649l-11.614-43.315L267.741,16.63l-6.4-6.571c-3.537-3.528-9.263-3.528-12.8,0L109.875,152.481
				l11.614,43.315c-0.974-0.416-2.021-0.636-3.081-0.649c-1.775-0.048-3.509,0.532-4.898,1.638L7.475,285.191L75.34,490.588
				c3.208,7.511,10.773,12.211,18.927,11.759h25.6C111.713,502.799,104.148,498.099,100.94,490.588z"/>
		</g>
	</g>
	<g>
		<polygon style="fill:#FFFFFF;" points="17.085,284.604 51.918,389.931 84.669,488.977 68.473,494.336 35.713,395.29 
			0.889,289.963 		"/>
		<g>
			<path style="fill:#428DFF;" d="M38.077,355.951c2.071-4.234,0.381-9.347-3.806-11.511l-1.536-0.563
				c-0.554-0.165-1.129-0.251-1.707-0.256c-0.535-0.077-1.078-0.077-1.613,0c-0.577,0.083-1.148,0.208-1.707,0.375
				c-2.136,0.746-3.912,2.269-4.975,4.267c-2.004,4.236-0.329,9.298,3.806,11.503c1.011,0.488,2.106,0.778,3.226,0.853
				c1.114,0.097,2.237-0.028,3.302-0.367C35.221,359.502,37.01,357.966,38.077,355.951z"/>
			<path style="fill:#428DFF;" d="M508.784,279.561L399.762,191.07l9.489-35.379c0.094-0.484,0.145-0.975,0.154-1.468
				c0.048-0.282,0.08-0.567,0.094-0.853c0.001-0.993-0.176-1.979-0.521-2.91c-0.06-0.154-0.179-0.29-0.247-0.444
				c-0.351-0.779-0.817-1.501-1.382-2.142c-0.094-0.111-0.128-0.247-0.23-0.358L268.409,5.069c-2.636-2.596-6.056-4.249-9.728-4.702
				c-0.068,0-0.102-0.068-0.171-0.094c-0.282-0.047-0.567-0.079-0.853-0.094C257.093,0.061,256.518,0,255.941,0
				c-0.574-0.001-1.146,0.059-1.707,0.179c-0.29,0.06-0.58,0-0.853,0.094c-0.068,0-0.102,0.077-0.171,0.094
				c-3.672,0.453-7.092,2.106-9.728,4.702L104.765,147.507c-0.102,0.111-0.137,0.247-0.23,0.358
				c-0.565,0.641-1.031,1.363-1.382,2.142c-0.068,0.154-0.188,0.29-0.247,0.444c-0.345,0.931-0.521,1.917-0.521,2.91
				c0.014,0.286,0.045,0.571,0.094,0.853c0.008,0.493,0.06,0.984,0.154,1.468l9.489,35.379L3.099,279.561
				c-2.902,2.416-3.843,6.467-2.304,9.916c0.051,0.162,0.145,0.307,0.205,0.461H0.931l10.709,32.427
				c1.48,4.477,6.309,6.907,10.786,5.427s6.907-6.309,5.427-10.786l-3.755-11.366l42.155,23.893l29.884,165.282h-0.708
				c-4.439,0.384-8.676-1.925-10.761-5.862l-35.43-107.128c-0.957-2.896-3.387-5.062-6.374-5.681
				c-2.987-0.619-6.077,0.402-8.107,2.679c-2.03,2.277-2.69,5.464-1.733,8.36l35.447,107.153
				c4.29,11.026,15.138,18.086,26.957,17.545h47.957c11.825,0.544,22.677-6.52,26.965-17.553l12.8-38.656l8.294,30.916
				c4.012,14.892,17.499,25.254,32.922,25.293h63.147c15.436-0.019,28.945-10.38,32.964-25.284l8.294-30.916l12.8,38.673
				c4.292,11.007,15.12,18.057,26.923,17.527h47.957c11.82,0.544,22.669-6.516,26.957-17.545l67.584-204.373
				c0-0.111,0-0.23,0.06-0.341C512.682,286.143,511.748,282.003,508.784,279.561z M361.755,332.681h66.014l-29.372,162.133h-11.853
				l-27.503-151.979L361.755,332.681z M436.925,314.914c-0.76,0.132-1.497,0.367-2.193,0.7h-68.386l25.677-95.727l26.564,73.045
				c1.612,4.43,6.51,6.715,10.94,5.103s6.715-6.51,5.103-10.94l-23.603-64.853l77.875,63.172L436.925,314.914z M310.785,206.225
				l-0.077,0.077c-0.604,0.495-1.138,1.069-1.587,1.707c-0.247,0.243-0.48,0.5-0.7,0.768c-0.159,0.349-0.296,0.708-0.41,1.075
				c-0.334,0.647-0.58,1.336-0.734,2.048v0.111l-41.643,282.803h-19.388L206.09,221.747h75.452c4.713,0,8.533-3.821,8.533-8.533
				s-3.82-8.533-8.533-8.533h-82.645l-74.889-52.429L238.602,34.978l-42.001,133.009c-0.682,2.159-0.478,4.501,0.567,6.509
				c1.045,2.009,2.846,3.52,5.005,4.2c0.832,0.257,1.698,0.386,2.569,0.384c3.727,0,7.023-2.418,8.141-5.973l43.059-136.354
				l43.059,136.354c1.118,3.555,4.414,5.974,8.141,5.973c0.868-0.002,1.731-0.134,2.56-0.393c2.16-0.681,3.96-2.191,5.005-4.2
				c1.045-2.009,1.249-4.35,0.567-6.509L273.076,34.321l114.816,117.922L310.785,206.225z M77.151,315.614
				c-0.699-0.332-1.439-0.567-2.202-0.7l-51.968-29.5l77.884-63.215l-23.612,64.896c-1.612,4.43,0.673,9.328,5.103,10.94
				s9.328-0.673,10.94-5.103l26.564-73.045l25.677,95.727H77.151z M84.106,332.681h66.022l2.722,10.155l-27.469,151.979h-11.895
				L84.106,332.681z M154.147,488.952c-2.084,3.938-6.322,6.246-10.761,5.862h-0.708l20.523-113.374l11.861,44.203L154.147,488.952z
				 M207.907,482.125l-82.714-308.164l63.147,44.177l40.653,276.676h-4.625c-7.718-0.007-14.47-5.192-16.469-12.646L207.907,482.125
				z M303.993,482.125c-1.984,7.474-8.745,12.681-16.478,12.689h-4.617l40.695-276.719l63.147-44.177L303.993,482.125z
				 M357.753,488.952l-20.932-63.258l11.861-44.211l20.523,113.331h-0.708c-4.43,0.385-8.662-1.912-10.752-5.837L357.753,488.952z
				 M427.222,488.952c-2.085,3.941-6.327,6.25-10.769,5.862h-0.708l29.935-165.239l42.155-23.893L427.222,488.952z"/>
		</g>
	</g>
</g>
<g>
</g>
<g>
</g>
<g>
</g>
<g>
</g>
<g>
</g>
<g>
</g>
<g>
</g>
<g>
</g>
<g>
</g>
<g>
</g>
<g>
</g>
<g>
</g>
<g>
</g>
<g>
</g>
<g>
</g>
</svg>
